<?xml version="1.0" encoding="UTF-8"?>
<svg version="1.1" xmlns="http://www.w3.org/2000/svg" width="512" height="512">
<path d="M0 0 C1.06992846 -0.00523668 2.13985693 -0.01047336 3.24220747 -0.01586872 C6.82780483 -0.03087168 10.41325951 -0.03157396 13.99888611 -0.03224182 C16.56978089 -0.03986323 19.1406734 -0.0482907 21.71156311 -0.0574646 C28.69739449 -0.08028583 35.68319543 -0.08823247 42.66905904 -0.09329104 C47.03550558 -0.09655215 51.40194336 -0.10307723 55.76838493 -0.11029243 C67.87009045 -0.12985652 79.97178782 -0.14626121 92.07351017 -0.14916897 C93.23451126 -0.14945032 93.23451126 -0.14945032 94.41896692 -0.14973736 C95.98790705 -0.1501036 97.55684719 -0.1504673 99.12578733 -0.15082847 C100.29394534 -0.15110269 100.29394534 -0.15110269 101.48570251 -0.15138245 C102.26543115 -0.151563 103.0451598 -0.15174354 103.84851658 -0.15192956 C116.47178892 -0.15546823 129.09489036 -0.18247214 141.71810348 -0.21988034 C154.69429772 -0.25802506 167.67040731 -0.27732691 180.64665884 -0.27762848 C187.92580057 -0.27821175 195.20473853 -0.28661899 202.48382759 -0.31562614 C209.33508851 -0.34280367 216.18594083 -0.34399252 223.03723526 -0.3279705 C225.5457656 -0.32615859 228.05431927 -0.33282324 230.56279945 -0.34878922 C249.92777422 -0.46448446 262.80957525 1.14384971 277.27207947 15.09837341 C278.42057216 16.2494528 279.56009239 17.40956073 280.69004822 18.57884216 C282.41362988 20.30640438 284.20999645 21.88134949 286.06895447 23.46165466 C289.68285185 26.57030814 293.03431961 29.88530446 296.38145447 33.27415466 C299.62596133 36.5588474 302.86067909 39.78149559 306.38145447 42.77415466 C310.46839476 46.24805391 314.18994425 50.04923312 317.95079041 53.86741638 C320.74430267 56.68838549 323.57439236 59.3596267 326.63145447 61.89915466 C335.49882099 69.49183725 343.64564301 80.43652889 344.6431675 92.41751671 C344.64869825 93.54763491 344.65422901 94.67775311 344.65992737 95.84211731 C344.67667259 97.79815887 344.67667259 97.79815887 344.6937561 99.79371643 C344.6961207 101.22648592 344.69829642 102.65925572 344.70030212 104.09202576 C344.70960647 105.61013825 344.7197759 107.12824565 344.73074341 108.64634705 C344.75800043 112.7574201 344.77318005 116.86845896 344.78617144 120.97959852 C344.8018208 125.27977886 344.82860527 129.57988958 344.85420227 133.88002014 C344.90095809 142.01838339 344.93771767 150.15675978 344.97087514 158.29518855 C345.00911912 167.56242538 345.05852333 176.82959224 345.1088593 186.09677005 C345.21213161 205.15584702 345.30140729 224.21496671 345.38145447 243.27415466 C347.28982356 241.05480047 349.19723263 238.83463311 351.10411072 236.61399841 C351.63927307 235.99182434 352.17443542 235.36965027 352.72581482 234.72862244 C355.80796062 231.13769292 358.84366624 227.5172403 361.81895447 223.83665466 C365.95948262 218.73426153 370.25067996 213.7746576 374.58213806 208.8344574 C377.83444914 205.11203003 380.92283822 201.31399495 383.94395447 197.39915466 C391.76251336 187.84313823 401.10383419 181.35254106 413.38145447 179.27415466 C427.51726587 177.93660279 439.64766345 180.25282154 451.01036072 189.20774841 C459.250601 196.38911103 465.50289719 206.25374077 466.58604431 217.3747406 C466.68478274 219.63720377 466.71018763 221.8846289 466.69395447 224.14915466 C466.68976501 224.94563416 466.68557556 225.74211365 466.68125916 226.56272888 C466.57110797 232.28238763 465.89168125 237.07907663 463.38145447 242.27415466 C463.12622009 242.90837341 462.87098572 243.54259216 462.60801697 244.19602966 C459.75404232 250.74184307 454.99482625 255.91039491 450.38145447 261.27415466 C449.42549357 262.39374851 448.46977223 263.51354694 447.51426697 264.63352966 C445.48883876 267.00333044 443.45821681 269.36856191 441.42442322 271.73118591 C437.16793522 276.67974182 432.95978441 281.66894006 428.74913025 286.65647888 C427.35686029 288.30324445 425.96139974 289.94725534 424.56504822 291.59056091 C420.33291813 296.57441714 416.12408049 301.56974738 412.00645447 306.64915466 C407.83989024 311.7714899 403.51944166 316.74832844 399.18101501 321.72459412 C395.25656349 326.23630829 391.44718664 330.82741021 387.68223572 335.47337341 C384.00139033 339.95413087 380.20632254 344.33574653 376.42442322 348.73118591 C373.53914852 352.08558117 370.67468487 355.45709206 367.81895447 358.83665466 C367.37285828 359.36452576 366.92676208 359.89239685 366.46714783 360.43626404 C365.56540224 361.50369621 364.66379116 362.57124202 363.76231384 363.63890076 C361.36589547 366.47680922 358.96752238 369.31306297 356.56895447 372.14915466 C354.63608137 374.4357961 354.63608137 374.4357961 352.71771812 376.73458481 C351.38145447 378.27415466 351.38145447 378.27415466 349.83945656 379.78653336 C346.03472384 383.67917337 344.69301306 386.42044372 344.61590576 391.86134338 C344.63441086 392.6791629 344.65291595 393.49698242 344.67198181 394.33958435 C344.66567497 395.66060654 344.66567497 395.66060654 344.65924072 397.00831604 C344.65156321 399.90492956 344.68507145 402.79961176 344.71739197 405.69602966 C344.71629713 407.72234 344.71198359 409.74865092 344.7046051 411.77494812 C344.69121278 417.10399602 344.7099967 422.43236858 344.73905945 427.76133728 C344.78444874 436.27509439 344.79993043 444.78848061 344.77951431 453.30233002 C344.7798846 456.26212248 344.80556151 459.22094229 344.83320618 462.18058777 C344.88222803 477.096748 342.50695508 487.75079733 332.38145447 499.27415466 C324.5968867 506.5968109 314.5924832 512.51546743 303.67633533 512.53142357 C302.55648615 512.53787246 301.43663696 512.54432135 300.28285295 512.55096567 C299.06272986 512.54786846 297.84260677 512.54477126 296.58551025 512.5415802 C295.28140817 512.54611131 293.97730609 512.55064243 292.63368577 512.55531085 C289.01994946 512.56753202 285.4063058 512.56728142 281.79255354 512.56492209 C277.89260219 512.5645137 273.99268045 512.57555536 270.09274292 512.58503723 C262.45372878 512.60164402 254.81474551 512.60714666 247.17571483 512.60826199 C240.96456294 512.60921274 234.75342123 512.6133244 228.54227257 512.61966324 C210.9254295 512.6372758 193.30861079 512.64650224 175.69175885 512.64500229 C174.26742454 512.64488242 174.26742454 512.64488242 172.8143158 512.64476013 C171.38823834 512.64463749 171.38823834 512.64463749 169.93335124 512.64451237 C154.53138931 512.64369976 139.12952524 512.66283106 123.72759161 512.69103687 C107.90603795 512.719782 92.08453199 512.73357622 76.26295155 512.73184931 C67.38318861 512.73118591 58.50352823 512.73665621 49.62378883 512.75820541 C42.06199946 512.7764388 34.50035911 512.78074697 26.93855724 512.76718657 C23.08296613 512.76066738 19.22766075 512.76050133 15.37209702 512.77789307 C11.18528864 512.79658407 6.99913856 512.78404178 2.81231689 512.76863098 C1.60334741 512.77891811 0.39437793 512.78920523 -0.85122699 512.79980409 C-13.50981898 512.69703262 -23.12608553 508.61511874 -32.61854553 500.27415466 C-40.67900994 491.70523795 -45.94660731 481.55049848 -45.87581444 469.66371632 C-45.87932051 468.91382764 -45.88282659 468.16393897 -45.88643891 467.3913264 C-45.89574925 464.87634977 -45.89083054 462.36160489 -45.88597107 459.84661865 C-45.88970752 458.02611626 -45.89430902 456.20561547 -45.89970171 454.38511723 C-45.91194791 449.38039609 -45.91166933 444.37574171 -45.90931296 439.37100899 C-45.9089052 433.97411512 -45.91994011 428.57724276 -45.9294281 423.18035889 C-45.94604834 412.60560299 -45.95153812 402.03086938 -45.95265286 391.45610151 C-45.95360292 382.86032042 -45.95771111 374.26454669 -45.96405411 365.66876793 C-45.98166989 341.30074782 -45.99089254 316.93274534 -45.98939316 292.56471882 C-45.98931325 291.25074915 -45.98923333 289.93677948 -45.989151 288.58299255 C-45.98906924 287.26741925 -45.98898748 285.95184594 -45.98890324 284.59640678 C-45.98809041 263.27757839 -46.00722642 241.95884303 -46.03542773 220.64003203 C-46.06415288 198.75257374 -46.07796821 176.86514991 -46.07624018 154.97767228 C-46.07557612 142.68854838 -46.08107557 130.39949854 -46.10259628 118.11039162 C-46.12080326 107.64640916 -46.12515939 97.18253434 -46.11157744 86.71854291 C-46.10504519 81.38048572 -46.10493999 76.04263505 -46.12228394 70.70459747 C-46.13800826 65.81470065 -46.13515737 60.9251742 -46.11771567 56.03528645 C-46.11464437 54.26946585 -46.11828305 52.50361765 -46.12943582 50.7378296 C-46.21742571 35.81422831 -43.718833 24.7688181 -33.61854553 13.27415466 C-28.59848926 8.55197258 -23.00236298 4.87954244 -16.61854553 2.27415466 C-15.39957754 1.76213706 -15.39957754 1.76213706 -14.15598392 1.23977566 C-9.38894006 -0.06149298 -4.91995184 -0.01191815 0 0 Z M-12.61854553 37.27415466 C-15.88667147 42.17634356 -15.74398143 46.66537847 -15.74717999 52.46037102 C-15.74893302 53.17653676 -15.75068606 53.8927025 -15.75249222 54.63057023 C-15.75715403 57.03675788 -15.75468625 59.44288514 -15.7522583 61.84907532 C-15.75412618 63.589068 -15.75642679 65.32906027 -15.75912362 67.06905186 C-15.76525085 71.85570975 -15.76510695 76.64235019 -15.76392925 81.42901111 C-15.76372548 86.58929893 -15.76924173 91.74958112 -15.77398682 96.90986633 C-15.78229884 107.02152958 -15.7850419 117.13318699 -15.78559919 127.24485336 C-15.78607407 135.46216246 -15.78812737 143.67946962 -15.79129982 151.89677811 C-15.80010768 175.18421568 -15.80471896 198.47164865 -15.80396935 221.75908791 C-15.80392939 223.01493396 -15.80388943 224.27078001 -15.80384827 225.56468201 C-15.80380739 226.82205776 -15.80376651 228.07943351 -15.80372439 229.37491156 C-15.80331781 249.75883058 -15.81288979 270.14273113 -15.82698663 290.52664481 C-15.84134038 311.44675779 -15.84825738 332.36686176 -15.84739286 353.28697979 C-15.84706055 365.03605817 -15.84982224 376.78511719 -15.86057091 388.53419113 C-15.86966271 398.53642365 -15.87186202 408.53862804 -15.86506148 418.5408629 C-15.86178967 423.64545622 -15.8617634 428.74999552 -15.87041473 433.85458374 C-15.87825143 438.52648474 -15.87687737 443.19828863 -15.8681306 447.87018718 C-15.86658936 449.5612686 -15.86843515 451.25235717 -15.87399068 452.94343017 C-15.88103988 455.24115657 -15.87576578 457.53854127 -15.8674345 459.83625603 C-15.86765187 461.11282346 -15.86786924 462.38939089 -15.86809319 463.70464218 C-15.49550467 469.03412268 -14.71294249 473.01138894 -11.18104553 477.08665466 C-5.97313723 481.53243004 -2.04236803 482.39757403 4.66235161 482.40278912 C5.71300863 482.40601356 6.76366565 482.40923801 7.84616077 482.41256016 C8.99410621 482.41101156 10.14205166 482.40946296 11.32478333 482.40786743 C12.5491822 482.41013299 13.77358107 482.41239854 15.03508294 482.41473275 C18.43076157 482.41996906 21.82638725 482.42071745 25.22206616 482.41953838 C28.88540861 482.41933431 32.54874315 482.42485368 36.21208191 482.42959595 C43.38800243 482.43790159 50.56391473 482.44065074 57.73983966 482.44120833 C63.57251865 482.4416835 69.40519494 482.44373833 75.23787308 482.44690895 C91.77413259 482.45571509 108.31038561 482.46032836 124.84664749 482.45957848 C126.18379638 482.45951854 126.18379638 482.45951854 127.54795837 482.4594574 C128.44047912 482.45941652 129.33299988 482.45937564 130.25256671 482.45933352 C144.71961727 482.458927 159.18664181 482.46849809 173.65368484 482.48259576 C188.50789179 482.49695653 203.36208606 482.50386612 218.21630013 482.50300199 C226.55600911 482.50266993 234.8956908 482.50542102 243.23539352 482.51618004 C250.33542386 482.52528107 257.43541454 482.52746354 264.53544818 482.52067062 C268.15755449 482.51740347 271.77958471 482.51735572 275.40168381 482.52602386 C279.32921064 482.53532625 283.2566261 482.52911791 287.18415833 482.52139282 C288.89938433 482.52910817 288.89938433 482.52910817 290.64926136 482.53697938 C300.66950988 482.56659187 300.66950988 482.56659187 309.19395447 477.83665466 C313.48775861 472.80676981 314.51285984 468.9743059 314.49497986 462.48387146 C314.49486656 461.10300606 314.49486656 461.10300606 314.49475098 459.69424438 C314.48958969 458.71385696 314.48442841 457.73346954 314.47911072 456.72337341 C314.47769577 455.70943008 314.47628082 454.69548676 314.474823 453.65081787 C314.46923775 450.42106645 314.45668791 447.19138504 314.44395447 443.96165466 C314.43893756 441.76829629 314.43437499 439.57493683 314.43028259 437.38157654 C314.41927315 432.01241214 314.40254966 426.6432884 314.38145447 421.27415466 C313.09924011 421.94027771 313.09924011 421.94027771 311.79112244 422.61985779 C300.04842009 428.6426232 288.03296143 434.01297164 275.93418884 439.27708435 C273.63474357 440.28137199 271.3388611 441.293854 269.04649353 442.31419373 C265.68914156 443.80836315 262.32203481 445.27814203 258.95176697 446.74290466 C257.93800995 447.19903137 256.92425293 447.65515808 255.879776 448.12510681 C249.12871595 451.01489882 242.56501076 452.91653948 235.32142639 450.6214447 C231.89752772 448.96228332 230.35435908 447.22783029 228.44395447 443.96165466 C226.74191581 438.05457934 227.26206927 432.89991303 228.66319275 426.97850037 C228.94413788 425.77647476 229.22508301 424.57444916 229.51454163 423.33599854 C229.82382599 422.05359787 230.13311035 420.7711972 230.45176697 419.44993591 C230.77396472 418.09869665 231.09588971 416.74739231 231.41755676 415.39602661 C232.09295918 412.56797295 232.77476037 409.74155073 233.46055603 406.91600037 C234.32982431 403.33040777 235.17836875 399.74027433 236.02139473 396.14843464 C236.68042583 393.35490153 237.35312452 390.56478502 238.02946091 387.77539635 C238.50006775 385.8213924 238.95758534 383.86425047 239.41468811 381.90704346 C242.17273939 370.70602058 246.28310655 360.72931915 254.19395447 352.21165466 C255.25491971 351.02250376 256.31480673 349.83239004 257.37364197 348.64134216 C257.88765564 348.06996521 258.40166931 347.49858826 258.93125916 346.90989685 C260.96885788 344.61159526 262.89438772 342.22993508 264.81895447 339.83665466 C268.96141826 334.73187623 273.26264546 329.77792785 277.58213806 324.82347107 C281.50647105 320.31180734 285.31579484 315.7208096 289.08067322 311.07493591 C292.19909599 307.27882534 295.39736715 303.55413579 298.60630798 299.8344574 C299.55596052 298.73294039 300.49514577 297.6223332 301.42498302 296.50403881 C302.90791738 294.81386754 304.47381535 293.19604727 306.07415485 291.61658955 C312.82815715 284.72799796 315.77203022 279.37559522 315.75007629 269.43942261 C315.71116879 267.96592981 315.67118623 266.49246509 315.63023376 265.01902771 C315.62712323 263.43092568 315.62888768 261.84280789 315.63510132 260.25471497 C315.63823126 255.98353875 315.57400952 251.715827 315.49678779 247.44544959 C315.42757102 242.9680279 315.42152672 238.49050845 315.4085083 234.01263428 C315.3744494 225.55143437 315.28436515 217.09181585 315.17366391 208.63130933 C315.05029956 198.99175428 314.99012925 189.35211983 314.93501413 179.71197069 C314.82033273 159.89848595 314.62711214 140.08642031 314.38145447 120.27415466 C313.37778336 120.26828842 312.37411224 120.26242218 311.34002686 120.25637817 C301.8789464 120.19915219 292.41809582 120.12639118 282.95724964 120.03843975 C278.0933784 119.99372222 273.2295912 119.95446911 268.36558533 119.92771912 C263.67107693 119.90169998 258.97689165 119.86130736 254.28258324 119.8109684 C252.49208789 119.79429029 250.70153665 119.78278189 248.9109745 119.77654076 C246.40184828 119.76690989 243.89355048 119.73886338 241.3846283 119.70652771 C240.27547813 119.70868034 240.27547813 119.70868034 239.1439209 119.71087646 C234.71882406 119.63028245 231.83707449 119.09494942 228.38145447 116.27415466 C225.19197973 112.09057476 224.93920657 108.3590212 224.94908142 103.27098083 C224.93888977 102.48021149 224.92869812 101.68944214 224.91819763 100.87471008 C224.88810675 98.27210875 224.8788078 95.66987573 224.86973572 93.06712341 C224.85288611 91.25821717 224.83473549 89.44932261 224.81533813 87.64044189 C224.76786253 82.88776807 224.73803739 78.13514164 224.7118988 73.38230896 C224.68208099 68.52910503 224.63555484 63.67606435 224.59043884 58.82298279 C224.50443348 49.30679219 224.43707585 39.79056797 224.38145447 30.27415466 C195.83694488 30.22851893 167.29243989 30.19312986 138.74790096 30.172024 C135.37713553 30.16952262 132.00637018 30.16693398 128.63560486 30.16429138 C127.96455271 30.16376676 127.29350056 30.16324214 126.60211349 30.16270162 C115.73983349 30.15400156 104.87757468 30.13823378 94.01530724 30.11984907 C82.86770399 30.10113893 71.72010798 30.09018526 60.57248884 30.08597767 C54.31185392 30.08336904 48.05126704 30.0772325 41.79064751 30.06269455 C35.89825811 30.0491225 30.00593657 30.04493129 24.11353302 30.0479393 C21.95080509 30.04738897 19.7880749 30.04340932 17.62536049 30.03574371 C14.67185905 30.02578848 11.7186136 30.02818801 8.7651062 30.03364563 C7.91003272 30.02781995 7.05495925 30.02199426 6.17397445 30.01599205 C-1.72302871 30.05541361 -7.23241495 30.96468741 -12.61854553 37.27415466 Z M254.38145447 37.27415466 C254.38145447 54.76415466 254.38145447 72.25415466 254.38145447 90.27415466 C272.53145447 90.27415466 290.68145447 90.27415466 309.38145447 90.27415466 C305.362564 85.58544912 301.37498135 81.10610844 297.00645447 76.77415466 C296.43338562 76.20301941 295.86031677 75.63188416 295.2698822 75.04344177 C291.82880404 71.63736257 288.29874086 68.40790683 284.60411072 65.27806091 C281.40849622 62.39695329 278.40753917 59.33156694 275.38145447 56.27415466 C270.54725557 51.39464512 265.67525305 46.65948358 260.38145447 42.27415466 C258.40145447 40.62415466 256.42145447 38.97415466 254.38145447 37.27415466 Z M401.38145447 225.27415466 C407.24054681 233.15362367 415.21164434 238.9559572 423.38145447 244.27415466 C425.01212452 242.52915719 426.63596694 240.77856678 428.25645447 239.02415466 C428.71664978 238.53302185 429.17684509 238.04188904 429.65098572 237.53587341 C434.53153243 232.23093134 435.85531317 228.87415862 435.69786072 221.74681091 C435.0947329 217.03347868 432.68916092 214.3950459 429.19395447 211.39915466 C416.02478088 206.13148523 408.69599004 215.65413056 401.38145447 225.27415466 Z M380.38145447 250.27415466 C378.32659522 252.46217121 376.37652254 254.66912565 374.44395447 256.96165466 C373.86274841 257.64211853 373.28154236 258.3225824 372.682724 259.02366638 C370.90981599 261.10229822 369.14496242 263.18754596 367.38145447 265.27415466 C366.40907754 266.41892323 365.43644135 267.56347165 364.46348572 268.70774841 C362.21372164 271.35743486 359.97240601 274.01413617 357.73301697 276.67259216 C356.34829977 278.31344203 354.95926556 279.95054271 353.56895447 281.58665466 C349.33517877 286.57153679 345.12524337 291.56831288 341.00645447 296.64915466 C336.83924322 301.77228533 332.5183299 306.75010395 328.17881775 311.72679138 C324.28505548 316.20262848 320.50774835 320.75718683 316.78379822 325.37571716 C314.89262959 327.65741981 312.97241899 329.89031282 311.01036072 332.11009216 C310.12670837 333.11266052 310.12670837 333.11266052 309.22520447 334.13548279 C308.06306744 335.44925831 306.89533411 336.75811082 305.72129822 338.06126404 C302.84924506 341.31140149 300.66205819 344.03769204 299.38145447 348.27415466 C306.34230833 353.99105365 313.33425725 359.66391306 320.38145447 365.27415466 C323.92354093 362.6006494 326.69886422 359.8794425 329.44395447 356.39915466 C332.97399193 351.99685255 336.57240205 347.67334208 340.25645447 343.39915466 C344.17018426 338.85155461 348.07151019 334.29448642 351.94395447 329.71165466 C352.39367615 329.17943298 352.84339783 328.6472113 353.30674744 328.09886169 C354.21213888 327.02702126 355.11741264 325.95508141 356.02256775 324.88304138 C357.8485522 322.72112303 359.67655771 320.56091887 361.50474548 318.40086365 C362.42077326 317.31849212 363.33662682 316.23597314 364.25230408 315.15330505 C366.56602234 312.41778734 368.88189342 309.68414255 371.20176697 306.95384216 C376.16937238 301.10280015 381.07346157 295.21143134 385.90489197 289.24681091 C387.83671428 286.92801473 389.79600654 284.65472818 391.79551697 282.39524841 C392.38800232 281.72348572 392.98048767 281.05172302 393.59092712 280.35960388 C394.76411615 279.03412743 395.94328583 277.71391507 397.12901306 276.39964294 C397.66606873 275.79233337 398.20312439 275.1850238 398.75645447 274.55931091 C399.23856384 274.02185242 399.72067322 273.48439392 400.21739197 272.9306488 C401.52680547 271.06731604 401.96522103 269.49779709 402.38145447 267.27415466 C400.17357142 265.37779484 397.96516161 263.48205426 395.75645447 261.58665466 C394.83026306 260.79098083 394.83026306 260.79098083 393.88536072 259.97923279 C392.65234688 258.92143671 391.41765407 257.86559447 390.18125916 256.81175232 C388.99942276 255.8020934 387.8227881 254.78630738 386.65196228 253.76390076 C383.91133114 251.1107054 383.91133114 251.1107054 380.38145447 250.27415466 Z M275.56895447 373.96165466 C267.74550862 383.35352402 266.6986004 398.6021483 264.38145447 410.27415466 C269.99953105 408.516753 275.39499911 406.29712264 280.81895447 404.02415466 C281.73483337 403.65419373 282.65071228 403.28423279 283.59434509 402.90306091 C290.2697003 400.09490718 296.466673 397.1037176 299.81895447 390.39915466 C300.09739197 389.34727966 300.09739197 389.34727966 300.38145447 388.27415466 C294.85469754 383.73506913 289.31985198 379.20578647 283.75645447 374.71165466 C282.93918884 374.0503656 282.12192322 373.38907654 281.27989197 372.70774841 C278.1807459 370.36744675 278.71423734 370.95616215 275.56895447 373.96165466 Z " fill="#000000" transform="translate(45.61854553222656,-0.2741546630859375)"/>
<path d="M0 0 C1.02909392 -0.00538554 2.05818785 -0.01077108 3.11846644 -0.01631981 C6.57157619 -0.03064316 10.02430497 -0.02348471 13.47743225 -0.01637268 C15.95116485 -0.02207393 18.42489481 -0.02903724 20.89862061 -0.03717041 C26.92321614 -0.05327637 32.94766162 -0.055197 38.97226398 -0.04995751 C43.86912957 -0.04591589 48.76596434 -0.04735926 53.66282845 -0.05270576 C54.35980969 -0.05345419 55.05679094 -0.05420261 55.77489283 -0.05497371 C57.19081478 -0.05650519 58.60673672 -0.05804354 60.02265865 -0.05958868 C73.30053765 -0.07331626 86.57835773 -0.06787422 99.85623539 -0.05640347 C112.00252594 -0.04647071 124.14866417 -0.05941196 136.29493123 -0.08333766 C148.76821123 -0.1077223 161.24142028 -0.11733811 173.71472365 -0.11068493 C180.71695451 -0.1071913 187.71906821 -0.1094342 194.72128105 -0.12693596 C201.30488737 -0.14318736 207.88824979 -0.13848618 214.4718647 -0.11963081 C216.88979663 -0.11593578 219.30775 -0.11907985 221.72566223 -0.1295166 C225.02325733 -0.14266502 228.31987885 -0.13123256 231.61743164 -0.11352539 C232.57706296 -0.1231304 233.53669429 -0.1327354 234.52540535 -0.14263147 C240.14287034 -0.08045399 243.43762443 0.59322301 247.87220764 4.38768005 C251.92851162 9.61027863 251.64618308 15.04108148 250.87220764 21.38768005 C248.70128557 25.97073776 246.44728118 28.287438 241.87220764 30.38768005 C238.4964741 30.82956596 235.14495854 30.79660787 231.74441528 30.77536011 C230.2007744 30.78343841 230.2007744 30.78343841 228.62594885 30.79167992 C225.17283909 30.80600326 221.72011031 30.79884482 218.26698303 30.79173279 C215.79325044 30.79743404 213.31952047 30.80439735 210.84579468 30.81253052 C204.82119915 30.82863648 198.79675366 30.8305571 192.7721513 30.82531761 C187.87528572 30.82127599 182.97845095 30.82271937 178.08158684 30.82806587 C177.38460559 30.82881429 176.68762435 30.82956272 175.96952246 30.83033382 C174.55360051 30.8318653 173.13767856 30.83340364 171.72175663 30.83494879 C158.44387763 30.84867636 145.16605755 30.84323433 131.88817989 30.83176357 C119.74188934 30.82183082 107.59575111 30.83477207 95.44948406 30.85869776 C82.97620405 30.88308241 70.50299501 30.89269821 58.02969164 30.88604504 C51.02746078 30.88255141 44.02534707 30.88479431 37.02313423 30.90229607 C30.43952791 30.91854747 23.8561655 30.91384629 17.27255058 30.89499092 C14.85461865 30.89129589 12.43666528 30.89443996 10.01875305 30.90487671 C6.72115796 30.91802513 3.42453643 30.90659267 0.12698364 30.8888855 C-1.31246334 30.90329301 -1.31246334 30.90329301 -2.78099006 30.91799158 C-8.39845506 30.8558141 -11.69320915 30.18213709 -16.12779236 26.38768005 C-20.18409634 21.16508148 -19.90176779 15.73427863 -19.12779236 9.38768005 C-14.93930361 0.54531491 -8.88469212 -0.05551462 0 0 Z " fill="#000000" transform="translate(79.12779235839844,270.61231994628906)"/>
<path d="M0 0 C1.02909392 -0.00538554 2.05818785 -0.01077108 3.11846644 -0.01631981 C6.57157619 -0.03064316 10.02430497 -0.02348471 13.47743225 -0.01637268 C15.95116485 -0.02207393 18.42489481 -0.02903724 20.89862061 -0.03717041 C26.92321614 -0.05327637 32.94766162 -0.055197 38.97226398 -0.04995751 C43.86912957 -0.04591589 48.76596434 -0.04735926 53.66282845 -0.05270576 C54.35980969 -0.05345419 55.05679094 -0.05420261 55.77489283 -0.05497371 C57.19081478 -0.05650519 58.60673672 -0.05804354 60.02265865 -0.05958868 C73.30053765 -0.07331626 86.57835773 -0.06787422 99.85623539 -0.05640347 C112.00252594 -0.04647071 124.14866417 -0.05941196 136.29493123 -0.08333766 C148.76821123 -0.1077223 161.24142028 -0.11733811 173.71472365 -0.11068493 C180.71695451 -0.1071913 187.71906821 -0.1094342 194.72128105 -0.12693596 C201.30488737 -0.14318736 207.88824979 -0.13848618 214.4718647 -0.11963081 C216.88979663 -0.11593578 219.30775 -0.11907985 221.72566223 -0.1295166 C225.02325733 -0.14266502 228.31987885 -0.13123256 231.61743164 -0.11352539 C232.57706296 -0.1231304 233.53669429 -0.1327354 234.52540535 -0.14263147 C240.14287034 -0.08045399 243.43762443 0.59322301 247.87220764 4.38768005 C251.92851162 9.61027863 251.64618308 15.04108148 250.87220764 21.38768005 C248.70128557 25.97073776 246.44728118 28.287438 241.87220764 30.38768005 C238.4964741 30.82956596 235.14495854 30.79660787 231.74441528 30.77536011 C230.2007744 30.78343841 230.2007744 30.78343841 228.62594885 30.79167992 C225.17283909 30.80600326 221.72011031 30.79884482 218.26698303 30.79173279 C215.79325044 30.79743404 213.31952047 30.80439735 210.84579468 30.81253052 C204.82119915 30.82863648 198.79675366 30.8305571 192.7721513 30.82531761 C187.87528572 30.82127599 182.97845095 30.82271937 178.08158684 30.82806587 C177.38460559 30.82881429 176.68762435 30.82956272 175.96952246 30.83033382 C174.55360051 30.8318653 173.13767856 30.83340364 171.72175663 30.83494879 C158.44387763 30.84867636 145.16605755 30.84323433 131.88817989 30.83176357 C119.74188934 30.82183082 107.59575111 30.83477207 95.44948406 30.85869776 C82.97620405 30.88308241 70.50299501 30.89269821 58.02969164 30.88604504 C51.02746078 30.88255141 44.02534707 30.88479431 37.02313423 30.90229607 C30.43952791 30.91854747 23.8561655 30.91384629 17.27255058 30.89499092 C14.85461865 30.89129589 12.43666528 30.89443996 10.01875305 30.90487671 C6.72115796 30.91802513 3.42453643 30.90659267 0.12698364 30.8888855 C-1.31246334 30.90329301 -1.31246334 30.90329301 -2.78099006 30.91799158 C-8.39845506 30.8558141 -11.69320915 30.18213709 -16.12779236 26.38768005 C-20.18409634 21.16508148 -19.90176779 15.73427863 -19.12779236 9.38768005 C-14.93930361 0.54531491 -8.88469212 -0.05551462 0 0 Z " fill="#000000" transform="translate(79.12779235839844,180.61231994628906)"/>
<path d="M0 0 C0.66157421 -0.00538554 1.32314842 -0.01077108 2.00477034 -0.01631981 C4.21419181 -0.03058919 6.42301327 -0.02349858 8.63246155 -0.01637268 C10.21950766 -0.02207681 11.80654966 -0.02904124 13.39358521 -0.03717041 C17.69939896 -0.05511237 22.00500904 -0.0539315 26.31084895 -0.04822803 C29.90681919 -0.04513764 33.50275023 -0.05122696 37.09871489 -0.05726677 C45.5826532 -0.07131382 54.06649081 -0.06974925 62.5504303 -0.05836487 C71.30000836 -0.04688341 80.04927991 -0.0609593 88.79881757 -0.08776134 C96.31404622 -0.10991961 103.82917866 -0.11655544 111.34443766 -0.11068493 C115.83158715 -0.10731445 120.31854016 -0.10973642 124.80566216 -0.12693596 C129.02551296 -0.14240508 133.24490979 -0.13845015 137.46474266 -0.11963081 C139.01189334 -0.11594481 140.55907766 -0.11905381 142.10619736 -0.1295166 C144.22162969 -0.14272863 146.3355595 -0.13117987 148.45092773 -0.11352539 C149.63354659 -0.11331611 150.81616545 -0.11310682 152.03462124 -0.1128912 C156.93580032 0.64099239 160.11970852 2.88224342 163.13661194 6.7665863 C165.2246425 11.51597108 164.90816526 16.31016157 164.28895569 21.38768005 C162.10740099 25.99318442 159.80700056 28.15400551 155.28895569 30.38768005 C152.16046238 30.76799679 152.16046238 30.76799679 148.57791138 30.77536011 C147.91633717 30.78074565 147.25476295 30.78613118 146.57314104 30.79167992 C144.36371957 30.8059493 142.1548981 30.79885869 139.94544983 30.79173279 C138.35840372 30.79743692 136.77136171 30.80440135 135.18432617 30.81253052 C130.87851242 30.83047248 126.57290234 30.8292916 122.26706243 30.82358813 C118.67109219 30.82049775 115.07516115 30.82658707 111.47919649 30.83262688 C102.99525818 30.84667393 94.51142056 30.84510935 86.02748108 30.83372498 C77.27790302 30.82224352 68.52863147 30.83631941 59.7790938 30.86312145 C52.26386515 30.88527972 44.74873271 30.89191555 37.23347372 30.88604504 C32.74632423 30.88267456 28.25937122 30.88509653 23.77224922 30.90229607 C19.55239841 30.91776519 15.33300159 30.91381025 11.11316872 30.89499092 C9.56601803 30.89130491 8.01883372 30.89441392 6.47171402 30.90487671 C4.35628169 30.91808874 2.24235187 30.90653997 0.12698364 30.8888855 C-1.05563521 30.88867621 -2.23825407 30.88846693 -3.45670986 30.8882513 C-8.35788895 30.13436771 -11.54179714 27.89311669 -14.55870056 24.0087738 C-16.64673113 19.25938903 -16.33025388 14.46519854 -15.71104431 9.38768005 C-12.32061534 2.23010779 -7.71294786 0.01585264 0 0 Z " fill="#000000" transform="translate(75.71104431152344,360.61231994628906)"/>
<path d="M0 0 C0.66157421 -0.00538554 1.32314842 -0.01077108 2.00477034 -0.01631981 C4.21419181 -0.03058919 6.42301327 -0.02349858 8.63246155 -0.01637268 C10.21950766 -0.02207681 11.80654966 -0.02904124 13.39358521 -0.03717041 C17.69939896 -0.05511237 22.00500904 -0.0539315 26.31084895 -0.04822803 C29.90681919 -0.04513764 33.50275023 -0.05122696 37.09871489 -0.05726677 C45.5826532 -0.07131382 54.06649081 -0.06974925 62.5504303 -0.05836487 C71.30000836 -0.04688341 80.04927991 -0.0609593 88.79881757 -0.08776134 C96.31404622 -0.10991961 103.82917866 -0.11655544 111.34443766 -0.11068493 C115.83158715 -0.10731445 120.31854016 -0.10973642 124.80566216 -0.12693596 C129.02551296 -0.14240508 133.24490979 -0.13845015 137.46474266 -0.11963081 C139.01189334 -0.11594481 140.55907766 -0.11905381 142.10619736 -0.1295166 C144.22162969 -0.14272863 146.3355595 -0.13117987 148.45092773 -0.11352539 C149.63354659 -0.11331611 150.81616545 -0.11310682 152.03462124 -0.1128912 C156.93580032 0.64099239 160.11970852 2.88224342 163.13661194 6.7665863 C165.2246425 11.51597108 164.90816526 16.31016157 164.28895569 21.38768005 C162.10740099 25.99318442 159.80700056 28.15400551 155.28895569 30.38768005 C152.16046238 30.76799679 152.16046238 30.76799679 148.57791138 30.77536011 C147.91633717 30.78074565 147.25476295 30.78613118 146.57314104 30.79167992 C144.36371957 30.8059493 142.1548981 30.79885869 139.94544983 30.79173279 C138.35840372 30.79743692 136.77136171 30.80440135 135.18432617 30.81253052 C130.87851242 30.83047248 126.57290234 30.8292916 122.26706243 30.82358813 C118.67109219 30.82049775 115.07516115 30.82658707 111.47919649 30.83262688 C102.99525818 30.84667393 94.51142056 30.84510935 86.02748108 30.83372498 C77.27790302 30.82224352 68.52863147 30.83631941 59.7790938 30.86312145 C52.26386515 30.88527972 44.74873271 30.89191555 37.23347372 30.88604504 C32.74632423 30.88267456 28.25937122 30.88509653 23.77224922 30.90229607 C19.55239841 30.91776519 15.33300159 30.91381025 11.11316872 30.89499092 C9.56601803 30.89130491 8.01883372 30.89441392 6.47171402 30.90487671 C4.35628169 30.91808874 2.24235187 30.90653997 0.12698364 30.8888855 C-1.05563521 30.88867621 -2.23825407 30.88846693 -3.45670986 30.8882513 C-8.35788895 30.13436771 -11.54179714 27.89311669 -14.55870056 24.0087738 C-16.64673113 19.25938903 -16.33025388 14.46519854 -15.71104431 9.38768005 C-12.32061534 2.23010779 -7.71294786 0.01585264 0 0 Z " fill="#000000" transform="translate(75.71104431152344,89.61231994628906)"/>
</svg>
