<?xml version="1.0" standalone="no"?>
<!DOCTYPE svg PUBLIC "-//W3C//DTD SVG 20010904//EN"
 "http://www.w3.org/TR/2001/REC-SVG-20010904/DTD/svg10.dtd">
<svg version="1.0" xmlns="http://www.w3.org/2000/svg"
 width="225.000000pt" height="225.000000pt" viewBox="0 0 225.000000 225.000000"
 preserveAspectRatio="xMidYMid meet">

<g transform="translate(0.000000,225.000000) scale(0.100000,-0.100000)"
fill="#000000" stroke="none">
<path d="M943 2145 c-689 -125 -1058 -881 -734 -1502 248 -473 820 -679 1315
-473 386 161 636 536 636 956 0 444 -289 844 -710 983 -151 49 -354 64 -507
36z m369 -49 c193 -37 361 -127 504 -270 101 -101 171 -202 219 -315 60 -141
70 -198 70 -386 0 -188 -10 -245 -70 -386 -48 -114 -118 -214 -219 -315 -144
-143 -312 -233 -504 -270 -95 -18 -279 -18 -374 0 -371 72 -673 357 -774 731
-27 100 -27 379 0 480 49 183 143 341 280 473 135 129 308 221 486 257 88 18
291 18 382 1z"/>
<path d="M1051 1655 c-99 -28 -154 -74 -197 -169 -23 -51 -26 -67 -22 -135 6
-94 29 -142 98 -204 53 -48 59 -57 36 -57 -21 0 -120 -55 -167 -92 -53 -42
-121 -138 -149 -208 -27 -68 -34 -205 -11 -205 10 0 19 23 28 80 35 212 187
366 394 398 248 38 479 -138 522 -398 9 -58 17 -80 27 -80 22 0 19 128 -4 191
-27 72 -99 176 -151 219 -46 37 -150 95 -172 95 -22 0 -15 10 37 57 70 62 92
110 98 206 4 71 2 82 -27 142 -50 101 -127 154 -246 169 -22 3 -64 -1 -94 -9z
m185 -63 c100 -51 157 -167 136 -272 -24 -115 -114 -192 -232 -198 -122 -7
-222 60 -255 172 -19 62 -19 80 1 145 23 79 89 144 174 172 40 13 133 3 176
-19z"/>
</g>
</svg>
