<svg width="54" height="55" viewBox="0 0 54 55" fill="none" xmlns="http://www.w3.org/2000/svg">
<rect x="0.35498" y="0.940796" width="53.2544" height="53.2544" rx="26.6272" fill="#8D75F5"/>
<path d="M39.9601 29.9522C39.9601 31.8362 39.5831 33.4573 38.8693 34.641C37.953 36.1614 36.5288 36.9658 34.751 36.9658C31.3577 36.9658 29.0765 32.7089 26.6621 28.2024C24.9079 24.9288 22.7307 20.8553 20.9407 20.8553C20.0781 20.8553 19.0208 21.9036 18.1817 23.5907C17.2219 25.5754 16.7123 27.7476 16.6892 29.9522C16.6892 31.3283 16.9399 32.5008 17.3941 33.2548C17.8159 33.9552 18.3943 34.2808 19.2132 34.2808C20.7516 34.2808 22.6401 31.0363 23.261 29.9745C23.4404 29.6668 23.7346 29.443 24.0791 29.3522C24.4235 29.2615 24.7898 29.3113 25.0975 29.4906C25.4052 29.67 25.6291 29.9643 25.7198 30.3087C25.8106 30.6531 25.7608 31.0194 25.5814 31.3271C24.5846 33.0367 23.732 34.236 22.8963 35.1064C21.6958 36.3572 20.4931 36.9658 19.2132 36.9658C17.4355 36.9658 16.0113 36.1614 15.095 34.641C14.3812 33.4573 14.0042 31.8362 14.0042 29.9522C14.0042 25.0328 16.6423 18.1702 20.9407 18.1702C24.3339 18.1702 26.6152 22.4272 29.0295 26.9337C30.786 30.2072 32.9643 34.2808 34.751 34.2808C35.57 34.2808 36.1484 33.9552 36.5702 33.2548C37.0244 32.5008 37.275 31.3283 37.275 29.9522C37.2523 27.7477 36.7431 25.5755 35.7836 23.5907C34.9446 21.9036 33.8873 20.8553 33.0236 20.8553C32.3836 20.8553 31.6128 21.4147 30.7312 22.5144C30.5086 22.7925 30.1848 22.9707 29.8308 23.0099C29.4769 23.0492 29.1218 22.9462 28.8438 22.7236C28.5658 22.5011 28.3875 22.1772 28.3483 21.8233C28.3091 21.4693 28.412 21.1143 28.6346 20.8362C30.0722 19.0428 31.5076 18.1702 33.0236 18.1702C34.9983 18.1702 36.8275 19.6705 38.1868 22.3947C39.3271 24.7526 39.9326 27.3332 39.9601 29.9522Z" fill="white"/>
</svg>
