<svg width="37" height="38" viewBox="0 0 37 38" fill="none" xmlns="http://www.w3.org/2000/svg">
<rect x="0.242676" y="0.795898" width="36.4078" height="36.4078" rx="18.2039" fill="#8D75F5"/>
<path d="M27.3191 20.6295C27.3191 21.9176 27.0613 23.0259 26.5733 23.8351C25.9469 24.8746 24.9732 25.4245 23.7578 25.4245C21.438 25.4245 19.8784 22.5142 18.2278 19.4333C17.0285 17.1953 15.5401 14.4104 14.3163 14.4104C13.7266 14.4104 13.0038 15.1271 12.4301 16.2805C11.7739 17.6374 11.4255 19.1224 11.4098 20.6295C11.4098 21.5703 11.5811 22.3719 11.8916 22.8874C12.18 23.3662 12.5754 23.5888 13.1353 23.5888C14.187 23.5888 15.4781 21.3707 15.9026 20.6448C16.0252 20.4345 16.2264 20.2814 16.4619 20.2194C16.6973 20.1574 16.9478 20.1914 17.1582 20.314C17.3685 20.4367 17.5215 20.6378 17.5836 20.8733C17.6456 21.1087 17.6116 21.3592 17.489 21.5696C16.8075 22.7383 16.2246 23.5582 15.6533 24.1533C14.8326 25.0084 14.0103 25.4245 13.1353 25.4245C11.92 25.4245 10.9463 24.8746 10.3198 23.8351C9.83186 23.0259 9.5741 21.9176 9.5741 20.6295C9.5741 17.2664 11.3777 12.5747 14.3163 12.5747C16.6361 12.5747 18.1957 15.485 19.8463 18.5659C21.0471 20.8039 22.5363 23.5888 23.7578 23.5888C24.3177 23.5888 24.7131 23.3662 25.0015 22.8874C25.312 22.3719 25.4834 21.5703 25.4834 20.6295C25.4679 19.1225 25.1197 17.6374 24.4638 16.2805C23.8902 15.1271 23.1673 14.4104 22.5769 14.4104C22.1394 14.4104 21.6124 14.7928 21.0097 15.5447C20.8575 15.7348 20.6361 15.8566 20.3941 15.8834C20.1521 15.9103 19.9094 15.8399 19.7193 15.6877C19.5292 15.5356 19.4074 15.3142 19.3806 15.0722C19.3537 14.8302 19.4241 14.5875 19.5763 14.3974C20.5591 13.1713 21.5405 12.5747 22.5769 12.5747C23.9269 12.5747 25.1774 13.6004 26.1067 15.4629C26.8863 17.0748 27.3002 18.8391 27.3191 20.6295Z" fill="white"/>
</svg>
